<?xml version="1.0" encoding="utf-8"?>
<!-- Generator: Adobe Illustrator 23.0.0, SVG Export Plug-In . SVG Version: 6.00 Build 0)  -->
<svg version="1.1"
	 id="svg3903" inkscape:version="0.92.2 (5c3e80d, 2017-08-06)" sodipodi:docname="emblem-default.svg" xmlns:cc="http://creativecommons.org/ns#" xmlns:dc="http://purl.org/dc/elements/1.1/" xmlns:inkscape="http://www.inkscape.org/namespaces/inkscape" xmlns:rdf="http://www.w3.org/1999/02/22-rdf-syntax-ns#" xmlns:sodipodi="http://sodipodi.sourceforge.net/DTD/sodipodi-0.dtd" xmlns:svg="http://www.w3.org/2000/svg"
	 xmlns="http://www.w3.org/2000/svg" xmlns:xlink="http://www.w3.org/1999/xlink" x="0px" y="0px" viewBox="0 0 16 16"
	 style="enable-background:new 0 0 16 16;" xml:space="preserve">
<style type="text/css">
	.st0{display:none;}
	.st1{display:inline;opacity:0.9;filter:url(#filter3174);enable-background:new    ;}
	.st2{fill:url(#SVGID_1_);}
	.st3{display:inline;opacity:0.9;filter:url(#filter3174-0);enable-background:new    ;}
	.st4{fill:url(#SVGID_2_);}
	.st5{opacity:0.99;}
	.st6{fill:#2FD67A;}
	.st7{fill:none;stroke:#FFFFFF;stroke-width:1.5609;}
</style>
<filter  id="filter3174-0" style="color-interpolation-filters:sRGB">
	<feGaussianBlur  id="feGaussianBlur3176-9" stdDeviation="1.71"></feGaussianBlur>
</filter>
<filter  id="filter3174" style="color-interpolation-filters:sRGB">
	<feGaussianBlur  id="feGaussianBlur3176" stdDeviation="1.71"></feGaussianBlur>
</filter>
<sodipodi:namedview  bordercolor="#666666" borderopacity="1.0" id="base" inkscape:current-layer="layer1" inkscape:cx="10.882751" inkscape:cy="6.7458242" inkscape:document-units="px" inkscape:grid-bbox="true" inkscape:pageopacity="0.0" inkscape:pageshadow="2" inkscape:window-height="718" inkscape:window-maximized="1" inkscape:window-width="1360" inkscape:window-x="0" inkscape:window-y="24" inkscape:zoom="11.313709" pagecolor="#ffffff" showgrid="true">
	<inkscape:grid  id="grid831" spacingx="0.3" spacingy="0.3" type="xygrid"></inkscape:grid>
</sodipodi:namedview>
<g id="layer1" transform="translate(0,-32)" inkscape:groupmode="layer" inkscape:label="Layer 1">
	<g id="layer1-2" transform="matrix(10.589787,0,0,10.589787,-6.8981011,-467.83874)" inkscape:label="Layer 1" class="st0">
		
			<image style="display:inline;overflow:visible;enable-background:new    ;" width="91" height="90" id="image3001" xlink:href="C8CA4444.png"  transform="matrix(0.5779 0 0 0.5779 -2.1485 -7.822209e-02)">
		</image>
	</g>
	<g id="flowRoot880" transform="matrix(1.1445077,0,0,1.1445077,72.981394,-12.281748)">
	</g>
	<g id="g4574" transform="matrix(1.6071093,0,0,1.6011113,66.003247,-7.92229)">
	</g>
	<g id="layer4" transform="translate(34.061634,-172.1879)">
	</g>
	<g id="layer2-7" transform="translate(94.061634,-173.1879)" class="st0">
		<g id="rect3745" class="st1">
			
				<linearGradient id="SVGID_1_" gradientUnits="userSpaceOnUse" x1="-51.8868" y1="127.5339" x2="-51.8868" y2="213.0324" gradientTransform="matrix(1.0059 0 0 -0.9942 100.1911 218.7902)">
				<stop  offset="0" style="stop-color:#000000"/>
				<stop  offset="1" style="stop-color:#000000;stop-opacity:0.5882"/>
			</linearGradient>
			<path class="st2" d="M11,7h74c3.3,0,6,2.7,6,6v73c0,3.3-2.7,6-6,6H11c-3.3,0-6-2.7-6-6V13C5,9.7,7.7,7,11,7z"/>
		</g>
	</g>
	<g id="layer2-0" transform="matrix(1.9515901,0,0,1.9515901,51.592327,-390.43714)" class="st0">
		<g id="rect3745-9" class="st3">
			
				<linearGradient id="SVGID_2_" gradientUnits="userSpaceOnUse" x1="-241.0438" y1="310.1143" x2="-241.0438" y2="395.6128" gradientTransform="matrix(1.963 0 0 -1.9402 521.1778 693.6869)">
				<stop  offset="0" style="stop-color:#000000"/>
				<stop  offset="1" style="stop-color:#000000;stop-opacity:0.5882"/>
			</linearGradient>
			<path class="st4" d="M8.1,7h79.9c1.7,0,3.1,1.4,3.1,3.1v78.9c0,1.7-1.4,3.1-3.1,3.1H8.1C6.4,92,5,90.6,5,88.9V10.1
				C5,8.4,6.4,7,8.1,7z"/>
		</g>
	</g>
	<g id="layer4-7" transform="matrix(1.9515901,0,0,1.9515901,51.592327,-390.43714)">
	</g>
</g>
<g>
	<g id="layer2" transform="matrix(0.35910889,0,0,0.35910889,-1.4878027,30.380785)" inkscape:label="circulo" class="st5">
		<path id="path3005" inkscape:connector-curvature="0" class="st6" d="M46.2-62.3c0,10.9-8.8,19.7-19.7,19.7h0
			c-10.9,0-19.7-8.8-19.7-19.7c0,0,0,0,0,0c0-10.9,8.8-19.7,19.7-19.7S46.2-73.2,46.2-62.3z"/>
	</g>
	<path id="path77" inkscape:connector-curvature="0" class="st7" d="M3.8,8.5l2.8,2.8l5.2-7"/>
</g>
</svg>
